<?xml version="1.0" encoding="UTF-8" standalone="no"?>
<svg width="498px" height="243px" viewBox="0 0 498 243" version="1.1" xmlns="http://www.w3.org/2000/svg" xmlns:xlink="http://www.w3.org/1999/xlink" xmlns:sketch="http://www.bohemiancoding.com/sketch/ns">
    <!-- Generator: Sketch 3.5.2 (25235) - http://www.bohemiancoding.com/sketch -->
    <title>logo</title>
    <desc>Created with Sketch.</desc>
    <defs></defs>
    <g id="Page-1" stroke="none" stroke-width="1" fill="none" fill-rule="evenodd" sketch:type="MSPage">
        <g id="logo" sketch:type="MSLayerGroup" transform="translate(-1.000000, -1.000000)">
            <path d="M75.8219424,70.6845324 L76.1798561,79.6 L54.4028777,80.4741007 L55.676259,112.182734 L82.4190647,111.108993 L82.7823741,120.15036 L46.1079137,121.623381 L42.5233813,32.4830935 L79.1996403,31.0064748 L79.5629496,40.0496403 L52.8201439,41.1233813 L54.044964,71.5586331 L75.8219424,70.6845324 Z" id="Fill-1" fill="#00345C" sketch:type="MSShapeGroup"></path>
            <path d="M121.66241,68.8419065 L122.020324,77.7555755 L100.243345,78.6296763 L101.516727,110.340108 L128.259532,109.266367 L128.622842,118.307734 L91.9465827,119.782554 L88.3620504,30.6386691 L125.040108,29.1638489 L125.403417,38.2052158 L98.6606115,39.2789568 L99.8854317,69.7160072 L121.66241,68.8419065 Z" id="Fill-2" fill="#00345C" sketch:type="MSShapeGroup"></path>
            <path d="M150.778237,117.417266 L147.558813,37.3165468 L131.130755,37.9766187 L130.767446,28.9352518 L173.555216,27.2158273 L173.918525,36.2553957 L157.492266,36.9154676 L160.711691,117.017986 L150.778237,117.417266 Z" id="Fill-3" fill="#00345C" sketch:type="MSShapeGroup"></path>
            <g id="Group-26" sketch:type="MSShapeGroup">
                <path d="M220.644604,46.8780576 L220.966547,54.9014388 L211.542086,55.2809353 L211.20036,46.7485612 C210.878417,38.7251799 207.500719,34.0147482 200.241727,34.3061151 C193.108633,34.5920863 189.993525,39.5651079 190.315468,47.5884892 L192.207554,94.7053957 C192.531295,102.728777 196.036691,107.435612 203.169784,107.147842 C210.428777,106.856475 213.416187,101.888849 213.094245,93.8654676 L212.628417,82.2791367 L222.051079,81.8996403 L222.497122,92.9769784 C223.040288,106.476978 217.031295,115.647842 203.277698,116.2 C189.651799,116.748561 182.92518,108.088489 182.383813,94.5884892 L180.529496,48.4895683 C179.988129,34.9913669 185.995324,25.8223022 199.623022,25.273741 C213.376619,24.7233813 220.101439,33.3780576 220.644604,46.8780576" id="Fill-4" fill="#00345C"></path>
                <path d="M242.669964,87.1929856 L262.535072,86.3944245 L250.409173,35.351259 L242.669964,87.1929856 Z M241.738309,95.7757194 L239.024281,113.871043 L229.853417,114.239748 L243.335432,24.4106115 L257.723921,23.8314748 L278.373201,112.290108 L268.439748,112.68759 L264.281475,94.8710432 L241.738309,95.7757194 Z" id="Fill-6" fill="#00345C"></path>
                <path d="M314.659892,63.1248201 L315.023201,72.1661871 L294.519604,72.9917266 L296.069964,111.576259 L286.140108,111.977338 L282.555576,22.8334532 L317.956655,21.4107914 L318.319964,30.4521583 L292.85054,31.4755396 L294.156295,63.9503597 L314.659892,63.1248201 Z" id="Fill-8" fill="#00345C"></path>
                <path d="M356.068885,1.76654676 L344.752338,15.3618705 L337.87464,15.6352518 L346.263129,2.16043165 L356.068885,1.76654676 Z M359.146223,59.2953237 L359.504137,68.2107914 L337.727158,69.0866906 L339.00054,100.797122 L365.743345,99.7215827 L366.106655,108.76295 L329.430396,110.23777 L325.847662,21.0938849 L362.523921,19.6190647 L362.88723,28.6604317 L336.144424,29.7359712 L337.369245,60.171223 L359.146223,59.2953237 Z" id="Fill-10" fill="#00345C"></path>
                <path d="M284.507554,147.673022 C280.288129,150.509353 274.710791,152.734173 268.568705,153.316906 L268.138849,142.665827 C280.766547,141.656835 284.818705,134.66223 287.484173,126.388849 L296.469784,126.027338 L301.153237,242.503957 L288.340288,243.018345 L284.507554,147.673022 Z" id="Fill-12" fill="#00345C"></path>
                <path d="M328.855216,152.223921 L329.556655,169.696942 C329.977518,180.178957 334.725719,186.321043 344.044065,185.946942 C353.527878,185.565647 357.598022,179.069245 357.177158,168.58723 L356.475719,151.114209 C356.047662,140.464928 351.473921,134.482914 341.991906,134.864209 C332.671763,135.238309 328.427158,141.57464 328.855216,152.223921 M369.482914,151.259892 L371.869604,210.660971 C372.61241,229.132194 364.759892,241.114209 346.125,241.86241 C328.319245,242.576439 319.375,231.439748 318.657374,213.635791 L318.571043,211.470324 L330.716727,210.982914 L330.83723,213.977518 C331.258094,224.461331 335.999101,230.436151 345.315647,230.06205 C355.29946,229.660971 359.371403,223.16277 358.876799,210.84982 L357.826439,184.723921 C354.986511,192.840827 348.83723,197.421763 339.518885,197.795863 C324.544065,198.398381 317.461331,188.015288 316.785072,171.209532 L316.071043,153.405576 C315.353417,135.601619 323.545863,123.772482 341.517086,123.04946 C359.486511,122.328237 368.765288,133.454137 369.482914,151.259892" id="Fill-14" fill="#00345C"></path>
                <path d="M396.220324,211.182914 C396.641187,221.664928 401.389388,227.807014 410.709532,227.432914 C420.191547,227.051619 424.263489,220.555216 423.840827,210.073201 L421.367806,148.504856 C420.939748,137.855576 416.358813,131.708094 406.876799,132.08759 C397.556655,132.461691 393.319245,138.967086 393.747302,149.616367 L396.220324,211.182914 Z M380.963129,150.798022 C380.245504,132.992266 388.605216,121.157734 406.409173,120.441906 C424.376799,119.718885 433.655576,130.846583 434.373201,148.65054 L436.786871,208.718885 C437.502698,226.522842 429.151978,238.52464 411.182554,239.247662 C393.378597,239.963489 384.092626,228.670324 383.375,210.864568 L380.963129,150.798022 Z" id="Fill-16" fill="#00345C"></path>
                <path d="M1.48057554,142.773201 L247.280935,133.082554" id="Fill-18" fill="#00345C"></path>
                <path d="M1.48057554,142.773201 L247.280935,133.082554" id="Stroke-20" stroke="#00345C" stroke-width="4"></path>
                <path d="M448.884532,125.135432 L498.805396,123.167806" id="Fill-22" fill="#00345C"></path>
                <path d="M448.884532,125.135432 L498.805396,123.167806" id="Stroke-24" stroke="#00345C" stroke-width="4"></path>
            </g>
        </g>
    </g>
</svg>